<svg width="1000" height="650" viewBox="0 0 1000 650" fill="none" xmlns="http://www.w3.org/2000/svg">
  <defs>
    <linearGradient id="bg" x1="0" y1="0" x2="1000" y2="650" gradientUnits="userSpaceOnUse">
      <stop stop-color="#F7F8FB"/>
      <stop offset="1" stop-color="#E8ECF2"/>
    </linearGradient>
    <linearGradient id="dark" x1="0" y1="0" x2="1000" y2="650" gradientUnits="userSpaceOnUse">
      <stop stop-color="#2B3444"/>
      <stop offset="1" stop-color="#080F1C"/>
    </linearGradient>
  </defs>
  <rect width="1000" height="650" fill="url(#bg)"/>
  <path d="M0 470H1000V650H0V470Z" fill="#1F2937"/>
  <path d="M0 338H1000V482H0V338Z" fill="#DDE3EC"/>
  <path d="M55 482H944" stroke="#FFFFFF" stroke-width="8" stroke-linecap="round" stroke-dasharray="80 54" opacity=".92"/>
  <path d="M0 188H1000" stroke="#D4DAE4" stroke-width="12" opacity=".55"/>
  <g opacity=".95">
    <rect x="80" y="96" width="98" height="360" rx="12" fill="#FFC400"/>
    <rect x="116" y="96" width="28" height="360" fill="#111827" opacity=".2"/>
    <rect x="312" y="96" width="98" height="360" rx="12" fill="#FFC400"/>
    <rect x="348" y="96" width="28" height="360" fill="#111827" opacity=".2"/>
    <rect x="590" y="96" width="98" height="360" rx="12" fill="#FFC400"/>
    <rect x="626" y="96" width="28" height="360" fill="#111827" opacity=".2"/>
    <rect x="822" y="96" width="98" height="360" rx="12" fill="#FFC400"/>
    <rect x="858" y="96" width="28" height="360" fill="#111827" opacity=".2"/>
  </g>
  <rect x="110" y="108" width="780" height="104" rx="22" fill="url(#dark)"/>
  <text x="500" y="176" text-anchor="middle" font-family="Inter, Arial, sans-serif" font-weight="900" font-size="42" fill="#FFFFFF">BEM-VINDO</text>
  <text x="662" y="176" font-family="Inter, Arial, sans-serif" font-weight="900" font-size="42" fill="#FFC400">DUARTE PARK</text>
  <rect x="130" y="360" width="340" height="42" rx="21" fill="#F8FAFC"/>
  <rect x="172" y="372" width="170" height="18" rx="9" fill="#111827" opacity=".9"/>
  <rect x="606" y="360" width="340" height="42" rx="21" fill="#F8FAFC"/>
  <rect x="648" y="372" width="170" height="18" rx="9" fill="#111827" opacity=".9"/>
  <g>
    <rect x="414" y="384" width="172" height="44" rx="22" fill="#FFC400"/>
    <circle cx="456" cy="464" r="34" fill="#111827"/>
    <circle cx="548" cy="464" r="34" fill="#111827"/>
    <path d="M430 380C446 328 558 328 574 380" stroke="#111827" stroke-width="22" stroke-linecap="round"/>
    <text x="500" y="417" text-anchor="middle" font-family="Arial Black, Arial" font-size="30" fill="#111827">P</text>
  </g>
  <rect x="92" y="500" width="170" height="72" rx="16" fill="#FFC400"/>
  <text x="177" y="547" text-anchor="middle" font-family="Inter, Arial" font-weight="900" font-size="22" fill="#111827">ENTRADA</text>
  <rect x="738" y="500" width="170" height="72" rx="16" fill="#FFC400"/>
  <text x="823" y="547" text-anchor="middle" font-family="Inter, Arial" font-weight="900" font-size="22" fill="#111827">SAÍDA</text>
</svg>
