<svg width="900" height="520" viewBox="0 0 900 520" fill="none" xmlns="http://www.w3.org/2000/svg">
  <rect width="900" height="520" fill="#F2F5F9"/>
  <g stroke="#D9E0EA" stroke-width="7" stroke-linecap="round">
    <path d="M-20 90C110 120 180 55 280 88S450 160 560 115S740 52 930 100"/>
    <path d="M-40 280C90 260 194 320 320 288S510 190 610 260S760 370 940 320"/>
    <path d="M70-20C120 100 100 208 160 340S260 470 245 550"/>
    <path d="M345-30C360 130 405 200 390 330S340 445 380 550"/>
    <path d="M620-30C580 100 640 180 610 300S540 415 590 550"/>
    <path d="M810-30C760 120 800 240 770 350S690 450 710 560"/>
  </g>
  <g stroke="#C9D3E1" stroke-width="3" opacity=".65">
    <path d="M0 180H900M0 400H900M120 0V520M500 0V520M750 0V520"/>
  </g>
  <circle cx="450" cy="260" r="18" fill="#FFC400" stroke="#111827" stroke-width="7"/>
  <path d="M450 278C450 278 421 322 421 345C421 361 434 374 450 374C466 374 479 361 479 345C479 322 450 278 450 278Z" fill="#111827"/>
  <text x="62" y="80" font-family="Inter, Arial" font-size="22" font-weight="700" fill="#8892A2">Parque Trianon</text>
  <text x="602" y="168" font-family="Inter, Arial" font-size="22" font-weight="700" fill="#8892A2">Shopping Cidade</text>
  <text x="188" y="350" font-family="Inter, Arial" font-size="22" font-weight="700" fill="#8892A2">Bela Vista</text>
</svg>
